<svg xmlns="http://www.w3.org/2000/svg" viewBox="0 0 32 32" fill="none">
  <defs>
    <linearGradient id="bg" x1="4" y1="2" x2="29" y2="30" gradientUnits="userSpaceOnUse">
      <stop stop-color="#243949"/>
      <stop offset="1" stop-color="#12202c"/>
    </linearGradient>
    <linearGradient id="gold" x1="7" y1="6" x2="25" y2="26" gradientUnits="userSpaceOnUse">
      <stop stop-color="#e2c48a"/>
      <stop offset="1" stop-color="#c8a96e"/>
    </linearGradient>
  </defs>
  <rect width="32" height="32" rx="7" fill="url(#bg)"/>
  <path d="M10 7.5h9.1L22 10.4V24.5a1.2 1.2 0 0 1-1.2 1.2h-9.6A1.2 1.2 0 0 1 10 24.5v-17Z" fill="#f7f5f0"/>
  <path d="M19.1 7.5V9.7c0 .5.4.9.9.9H22" fill="#d4cfc4"/>
  <path d="M19.1 7.5L22 10.4h-2c-.5 0-.9-.4-.9-.9V7.5Z" fill="#c8a96e" fill-opacity="0.6"/>
  <path d="M12.5 14.5h7M12.5 17.5h7M12.5 20.5h4.5" stroke="#1a2a3a" stroke-opacity="0.3" stroke-width="1.4" stroke-linecap="round"/>
  <path d="M23.8 9.2c.9 2.1 1.8 3.4 3.5 4.6-1.7 1.2-2.6 2.5-3.5 4.6-.9-2.1-1.8-3.4-3.5-4.6 1.7-1.2 2.6-2.5 3.5-4.6Z" fill="url(#gold)"/>
</svg>
